# xmcd
#
# Track frame offsets: 
#        150
#        14148
#        32936
#        64621
#        83260
#        106751
#        118309
#        135003
#        146911
#        170984
#        191161
#        209534
#        225203
#        240737
#        266919
#        281788
#        323405
#
# Disc length: 4776 seconds
#
# Revision: 3
# Processed by: cddbd v1.5.2PL0 Copyright (c) Steve Scherf et al.
# Submitted via: ExactAudioCopyFreeDBPlugin 1.0
#
DISCID=f712a611
DTITLE=Various Artist - Pink Champagne CD 1
DYEAR=2003
DGENRE=Jazz
TTITLE0=Eva Cassidy - Yesterday
TTITLE1=Charlie Hunter and Norah Jones - More Than This
TTITLE2=Dianne Reeves - Both Sides Now
TTITLE3=Enzo Pietropaoli - Sorry Seems To Be The Hardest Word
TTITLE4=Miriam Aida and Fredrik Kronkvist - Sunny
TTITLE5=Julie London - Fly Me To The Moon
TTITLE6=Nancy Wilson - People
TTITLE7=Cilla Black - Alfie
TTITLE8=Angelita Li/Hans Ulrik - Close To You
TTITLE9=Patricia Barber - A Taste Of Honey
TTITLE10=Sarah Vaughan - In A Sentimental Mood
TTITLE11=Dinah Washington - These Foolish Things
TTITLE12=Nina Simone - Wild Is The Wind
TTITLE13=Lena Horne - Imagination
TTITLE14=Billie Holiday with The Paul Whiteman Orchestra - Trav'lin' L
TTITLE14=ight
TTITLE15=Ella Fitzgerald - Medley: Candy-All I Do Is Dream Of You-Spri
TTITLE15=ng Is Here-720 In The Books-It Happened In Monterey-What Can 
TTITLE15=I Say
TTITLE16=data track
EXTD=YEAR: 2003
EXTT0=
EXTT1=
EXTT2=
EXTT3=
EXTT4=
EXTT5=
EXTT6=
EXTT7=
EXTT8=
EXTT9=
EXTT10=
EXTT11=
EXTT12=
EXTT13=
EXTT14=
EXTT15=
EXTT16=
PLAYORDER=
